<svg xmlns="http://www.w3.org/2000/svg" width="24" height="24" viewBox="0 0 24 24" fill="none" stroke="#111111" stroke-width="1.8" stroke-linecap="round" stroke-linejoin="round">
  <path d="M4.5 10.3 4 4.6l4.5 2.1A9.5 9.5 0 0 1 12 6a9.5 9.5 0 0 1 3.5.7L20 4.6l-.5 5.7c.95 1.05 1.5 2.4 1.5 3.9 0 4.1-3.8 6.8-9 6.8s-9-2.7-9-6.8c0-1.5.55-2.85 1.5-3.9Z"/>
  <circle cx="9.2" cy="13.1" r=".65" fill="#111111" stroke="none"/>
  <circle cx="14.8" cy="13.1" r=".65" fill="#111111" stroke="none"/>
  <path d="M10.3 16c.55.45 1.1.68 1.7.68s1.15-.23 1.7-.68"/>
</svg>
