<svg xmlns="http://www.w3.org/2000/svg" viewBox="0 0 1024 1024">
  <rect width="1024" height="1024" fill="#f5534f"/>
  <path fill="#ffffff" d="M252 281 377 169l48 139a330 330 0 0 1 174 0l48-139 125 112-19 171c24 51 37 108 37 169 0 183-125 275-278 275S234 804 234 621c0-61 13-118 37-169l-19-171Z"/>
  <path fill="#f5534f" d="M368 573c30 0 54 25 54 56s-24 56-54 56-54-25-54-56 24-56 54-56Zm288 0c30 0 54 25 54 56s-24 56-54 56-54-25-54-56 24-56 54-56ZM512 656c29 0 53 16 53 35 0 13-11 25-28 31-4 37-14 74-25 74s-21-37-25-74c-17-6-28-18-28-31 0-19 24-35 53-35Z"/>
</svg>
